<?xml version="1.0" encoding="utf-8"?>
<!-- Generator: Adobe Illustrator 15.1.0, SVG Export Plug-In . SVG Version: 6.00 Build 0)  -->
<!DOCTYPE svg PUBLIC "-//W3C//DTD SVG 1.1//EN" "http://www.w3.org/Graphics/SVG/1.1/DTD/svg11.dtd">
<svg version="1.1" id="Layer_1" xmlns="http://www.w3.org/2000/svg" xmlns:xlink="http://www.w3.org/1999/xlink" x="0px" y="0px"
	 width="425.2px" height="226.77px" viewBox="0 0 425.2 226.77" enable-background="new 0 0 425.2 226.77" xml:space="preserve">
<path fill="#231F20" d="M364.641,86.289V146.3h60.772V86.289H364.641z M406.394,135.853l-5.661,2.444l-6.673-15.686l-8.695,7.13
	V94.293l25.476,24.447l-11.119,1.427L406.394,135.853z"/>
<path fill="#231F20" d="M243.453,67.307c-9.831-6.152-21.102-14.194-33.81-24.13c-11.919-9.134-22.045-16.329-30.388-21.599
	c-8.343-5.254-18.172-9.725-29.494-13.403c-11.321-3.672-24.025-5.512-38.131-5.512h-0.298c-23.43,0-43.442,4.422-60.026,13.255
	c-16.582,8.844-29.244,21.706-37.982,38.577C4.585,71.381,0.216,91.639,0.216,115.268c0,10.17,1.035,19.684,3,28.607
	c2.178-10.71,5.529-20.507,10.108-29.359c8.738-16.878,21.4-29.74,37.982-38.576c16.583-8.835,36.596-13.257,60.026-13.257h0.298
	c14.106,0,26.811,1.835,38.131,5.505c11.322,3.678,21.151,8.148,29.494,13.41c8.343,5.263,18.468,12.466,30.388,21.6
	c12.708,9.928,23.979,17.97,33.81,24.129c9.825,6.152,21.642,11.319,35.45,15.49c13.806,4.17,29.738,6.254,47.806,6.254v-60.02
	c-18.067,0-34-2.084-47.806-6.256C265.095,78.625,253.278,73.468,243.453,67.307z"/>
<path fill="#231F20" d="M74.244,152.065c-3.389-2.539-6.229-5.4-8.647-8.529c-6.018,8.173-9.078,18.534-9.078,31.15
	c0,16.089,5.91,28.554,17.725,37.389c11.818,8.836,28.551,13.363,50.196,13.558h0.299v-60.023h-0.299
	C102.795,165.415,86.062,160.897,74.244,152.065z"/>
</svg>
