<?xml version="1.0" standalone="no"?>
<!DOCTYPE svg PUBLIC "-//W3C//DTD SVG 20010904//EN"
 "http://www.w3.org/TR/2001/REC-SVG-20010904/DTD/svg10.dtd">
<svg version="1.0" xmlns="http://www.w3.org/2000/svg"
 width="850.000000pt" height="850.000000pt" viewBox="0 0 850.000000 850.000000"
 preserveAspectRatio="xMidYMid meet">
<metadata>
Created by potrace 1.11, written by Peter Selinger 2001-2013
</metadata>
<g transform="translate(0.000000,850.000000) scale(0.100000,-0.100000)"
fill="#000000" stroke="none">
<path d="M2167 6444 c-1 -1 -57 -5 -125 -9 -67 -3 -130 -8 -140 -9 -9 -2 -66
-11 -127 -21 -315 -48 -617 -163 -855 -324 -231 -157 -424 -373 -563 -631 -83
-154 -168 -387 -203 -555 -9 -43 -27 -141 -29 -160 -2 -11 -5 -36 -8 -55 -3
-19 -9 -64 -12 -100 -3 -36 -8 -90 -10 -120 -16 -181 -2 -516 29 -667 3 -11 8
-42 11 -68 4 -25 9 -45 11 -43 1 2 17 56 33 121 147 559 475 982 949 1221 97
49 276 119 362 141 268 71 475 97 765 99 175 0 338 -12 460 -34 28 -5 61 -12
75 -14 25 -4 71 -16 145 -36 22 -6 47 -12 55 -14 36 -10 227 -79 269 -98 206
-92 264 -125 461 -257 127 -85 572 -410 590 -431 3 -3 39 -31 80 -61 412 -306
639 -438 945 -552 171 -64 358 -117 465 -133 19 -3 51 -9 70 -14 19 -5 60 -11
90 -14 30 -4 73 -9 95 -11 97 -12 159 -16 292 -20 l142 -5 0 590 -1 590 -66 1
c-351 3 -684 57 -987 160 -242 83 -415 163 -595 277 -169 107 -326 218 -659
469 -159 120 -326 243 -370 273 -45 30 -96 65 -114 78 -247 177 -665 350 -954
396 -99 16 -120 19 -152 22 -112 11 -417 24 -424 18z"/>
<path d="M7229 4770 c-3 -176 1 -1133 5 -1137 4 -5 993 -7 1166 -4 l25 1 -1
580 c0 319 -4 584 -8 588 -4 4 -273 7 -597 7 l-589 0 -1 -35z"/>
<path d="M1356 3664 c-13 -13 -91 -166 -107 -209 -10 -29 -37 -134 -44 -175
-12 -72 -15 -278 -5 -355 44 -325 228 -564 545 -707 70 -31 220 -82 272 -92
180 -35 244 -43 421 -52 l92 -4 0 590 0 590 -27 0 c-102 2 -273 15 -328 26
-10 2 -37 6 -60 9 -118 17 -285 70 -399 127 -115 57 -181 103 -269 189 -65 65
-80 75 -91 63z"/>
</g>
</svg>
